<svg xmlns="http://www.w3.org/2000/svg" xmlns:xlink="http://www.w3.org/1999/xlink" viewBox="247.28 245.75 3192.94 3641.44"><path fill="#333233" d="M1130.56 551.176c22.268-29.916 53.612-57.072 82.268-80.892 148.904-123.773 331.684-180.794 520.568-208.68 81.016-11.961 161.832-15.859 243.648-15.856 251.228.009 523.004 46.661 729.04 199.932 40.98 30.088 78.504 64.616 111.884 102.96 61.364-22.176 127.656-23.66 187.784 4.608a207.44 207.44 0 0 1 106.72 117.824c17.184 48.98 13.46 108.72-9.54 155.24-21.672 43.832-61.82 84.232-108.772 99.832-5.96 1.98-11.98 3.476-18.136 4.704 28.444 150.256 48.484 301.98 60.02 454.472 11.404 154.004 13.62 308.48 19.952 462.712 205.16 160.94 343.192 355.624 375.048 619.316 11.092 91.808 23.524 208.076-37.356 285.632-25.364 32.628-62.908 53.536-104.004 57.912-40.88 4.568-78.816-7.82-110.512-33.656-29.268-23.86-47.828-53.192-51.572-91.288-3.576-36.388 5.12-71.344 20.916-103.888-18.876-62.32-44.928-115.232-81.188-169.044l6.084 156.676c4.756 97.716 29.856 385.9-33.532 456.6-5.56 6.2-11.912 11.836-18.048 17.464-11.704 50.332-23.832 99.676-42.152 148.14-45.404 120.092-128.46 223.22-228.492 302.544 73.356 33.392 154.012 72 187.528 150.104 15.704 2.28 35.712 7.2 50.268 13.568 13.864 6.06 28.628 9.78 42.404 16.008 13.52 6.116 30.608 18.052 35.744 32.696 2.72 7.764 1.84 15.46-1.828 22.768-13.668 27.236-60.432 43.976-87.404 53.436-66.768 23.416-137.2 36.336-206.676 48.748-215.796 38.556-437.6 49.608-656.492 53.928-234.836 4.636-467.852-.84-701.62-25.86-79.528-8.512-158.38-17.84-237.076-32.248-76.232-13.956-160.688-27.416-231.028-61.532-16.252-7.884-41.264-20.344-46.772-38.804-2.256-7.564-.752-15.14 3.016-21.944 19.344-34.952 90.624-51.884 127.176-63.208 24.264-62.264 98.964-110.408 157.548-136.084 7.864-3.368 15.796-6.572 23.796-9.604-145.696-118.1-246.72-269.488-285.204-454.824-14.404-14.184-31.152-28.004-41.98-45.232-33.2-52.82-30.7-144.096-31.156-205.22-.596-80.004 5.772-161.872 13.044-241.516-35.004-1.924-70.368-1.004-105.436-1.048l-179.888-.1c-39.876-.028-85.704 4.308-124.556-4.58-24.924-5.696-48.464-18.748-65.533-37.928-31.861-35.792-33.098-82.688-31.966-128.156-44.968-20.688-74.755-54.676-91.899-101.048-25.169-68.084-24.562-155.844 6.486-221.98 19.155-40.804 47.682-67.908 85.162-91.988-1.366-75.372-.39-150.872-.312-226.26.042-40.928-4.645-87.672 2.763-127.792 4.432-24.004 14.772-48.26 31.615-66.196 26.75-28.484 64.902-39.832 103.006-40.38l417.96-.064c-.444-38.404 4.348-77.584 7.344-115.864 7.24-97.7 18.548-195.052 33.892-291.812 8.652-53.772 22.308-109.476 26.732-163.624-50.76-10.824-92.04-38.924-120.26-82.948-30.288-47.248-43.464-101.36-31.06-156.736 11.872-52.98 47.056-98.836 92.808-127.396 48.08-30.016 112.728-40.872 167.876-27.372 14.468 3.54 27.688 9.004 41.348 14.828z"/><path d="M1028.428 3642.1c-4.144 35.812-4.084 72.892 19.02 102.984 28.496 37.116 84.44 52.424 128.728 57.636 138.652 16.312 261.88-59.396 365.924-142.44l10.28-8.4c211.98 49.12 418.832 69.6 635.768 41.604a1807.93 1807.93 0 0 0 90.64-13.676c27.216-5.052 106.888-25.584 126.82-23.752 23.28 2.144 70.732 43.288 92.116 57.388 29.96 19.752 61.412 39.308 94.2 53.972 89.68 40.104 211.388 58.468 299.312 3.656 24.676-15.38 40.412-36.444 46.716-65.028 4.568-20.716 3.552-40.624.764-61.5 15.704 2.28 35.712 7.2 50.268 13.568 13.864 6.06 28.628 9.78 42.404 16.008 13.52 6.116 30.608 18.052 35.744 32.696 2.72 7.764 1.84 15.46-1.828 22.768-13.668 27.236-60.432 43.976-87.404 53.436-66.768 23.416-137.2 36.336-206.676 48.748-215.796 38.556-437.6 49.608-656.492 53.928-234.836 4.636-467.852-.84-701.62-25.86-79.528-8.512-158.38-17.84-237.076-32.248-76.232-13.956-160.688-27.416-231.028-61.532-16.252-7.884-41.264-20.344-46.772-38.804-2.256-7.564-.752-15.14 3.016-21.944 19.344-34.952 90.624-51.884 127.176-63.208zM1816.4 637.092c79.668-3.032 159.876-1.624 239.596-1.56 168.144.136 348.24 2.928 515.124 23.628 85.168 10.56 161.768 40.572 215.464 110.3 73.596 95.56 87.304 229.48 71.876 346.028-12.524 94.628-54.236 184.38-131.684 242.728-82.156 61.892-188.008 78.188-288.136 64.08-110.828-15.612-220.332-71.356-288.872-161.712-27.288-35.976-47.96-76.516-75.2-112.572-8.476-11.484-17.444-22.884-27.512-33.016-17.772-17.888-41.124-34.728-67.44-33.988-76.612 2.156-143.372 156.592-193.544 210.296-79.524 85.124-190.608 131.376-306.46 134.956-103.004 3.184-205.164-22.528-281.472-95.436-77.036-73.608-100.612-186.864-102.38-289.58-1.772-103 16.132-216.608 90.78-293.312 28.3-29.08 58.808-51.384 96.828-66.008 89.108-34.276 194.668-33.836 289.072-37.996 81.272-3.76 162.604-6.04 243.96-6.836z" fill="#cbc8c5"/><g fill="#fbf7ef"><path d="M1574.684 1364.088l.468 1.556c-12.1 5.176-26.888 6.8-39.888 8.9-69.556 11.236-148.292 7.944-214.356-18.236-69.88-27.692-108.776-75.152-137.588-142.756-39.344-92.304-41.636-254.008-4.36-346.232 25.132-62.172 65.812-103.748 127.66-129.392 157.464-65.296 1094.856-51.32 1286.168-18.708a283.45 283.45 0 0 1 61.08 17.568c59.884 25.404 101.024 71.616 124.836 131.64 41.016 103.396 37.412 247.588-6.888 349.268-27.028 62.044-79.12 115.996-142.736 140.4-58.956 22.612-179.216 27.676-239.656 7.34l-.56-2.124c-86.152-16.056-161.724-67.276-208.548-141.356-20.724-7.112-92.78-169.076-180.16-188.64-88.224-19.756-146.236 84.156-186.244 145.248-4.976 7.604-13.448 24.272-21.216 28.112-.656.324-1.392.444-2.088.664a316.1 316.1 0 0 1-215.924 156.748z"/><path d="M1574.684 1364.088c-145.524 28.32-291.176-48.296-350.28-184.26s-15.776-294.732 104.196-381.824 284.356-79.104 395.32 19.208 138.696 260.536 66.688 390.128a316.1 316.1 0 0 1-215.924 156.748z"/></g><path fill="#333233" d="M1624.888 958.388c26.416-1.048 50.604 4.108 72.624 19.744 28.528 20.264 45.572 52.176 51.068 86.288 6.348 39.376-1.952 81.564-25.78 113.924-19.836 26.94-46.128 42.052-79.1 46.9-24.724.788-48.064-3.396-69.208-17.164-28.62-18.636-46.236-50.608-53.072-83.468-8.156-39.188-1.404-80.896 21.032-114.324 20.048-29.876 47.492-45.308 82.436-51.9z"/><path fill="#fbf7ef" d="M1598.68 1035.316c16.736-2.244 32.232 9.2 35.008 25.856s-8.16 32.508-24.716 35.82c-11.196 2.24-22.72-1.796-30.072-10.528a31.29 31.29 0 0 1-5.244-31.428c4.12-10.648 13.708-18.204 25.024-19.72z"/><path fill="#51b5c7" d="M1574.684 1364.088l.468 1.556c-12.1 5.176-26.888 6.8-39.888 8.9-69.556 11.236-148.292 7.944-214.356-18.236-69.88-27.692-108.776-75.152-137.588-142.756-39.344-92.304-41.636-254.008-4.36-346.232 25.132-62.172 65.812-103.748 127.66-129.392 157.464-65.296 1094.856-51.32 1286.168-18.708a283.45 283.45 0 0 1 61.08 17.568c59.884 25.404 101.024 71.616 124.836 131.64 41.016 103.396 37.412 247.588-6.888 349.268-27.028 62.044-79.12 115.996-142.736 140.4-58.956 22.612-179.216 27.676-239.656 7.34l-.56-2.124c146.64 27.324 292.344-51.952 349.048-189.916s8.86-296.792-114.616-380.48-288.72-69.3-395.868 34.476-126.812 268.476-47.112 394.564c-20.724-7.112-92.78-169.076-180.16-188.64-88.224-19.756-146.236 84.156-186.244 145.248-4.976 7.604-13.448 24.272-21.216 28.112-.656.324-1.392.444-2.088.664 72.008-129.592 44.276-291.812-66.688-390.128s-275.344-106.3-395.32-19.208-163.3 245.864-104.196 381.824 204.756 212.58 350.28 184.26z"/><path fill="#333233" d="M2322.348 958.552c23.276-1.456 46.032 3.208 65.956 15.724 29.788 18.708 48.728 50.188 55.924 84.168 8.308 39.232 1.14 82.452-21.076 116.032-18.768 28.36-43.584 43.644-76.632 50.24-25.464 1.916-48.968-2.384-70.724-16.616-29.36-19.212-47.756-51.316-54.652-85.236-7.892-38.82-1.348-81.152 21.144-114.144 19.38-28.428 46.464-43.952 80.06-50.168z"/><path fill="#fbf7ef" d="M2297.172 1035.348c16.808-2.928 32.86 8.164 36.072 24.92s-7.604 32.996-24.304 36.492c-11.056 2.316-22.504-1.516-29.944-10.02s-9.712-20.36-5.944-31.012a31.27 31.27 0 0 1 24.12-20.38z"/><path fill="#51b5c7" d="M978.064 1501.904a3591.59 3591.59 0 0 1 34.364-357.572c5.716-41.34 9.152-85.596 20.288-125.724-1.276 49.14 2.344 100.156 11.944 148.368 24.736 124.256 75.544 202.532 180.488 272.244 133.092 69.412 269.344 73.06 410.86 28.504l10.444-3.336c-1.336 14.308-2.58 28.084-.596 42.42 3.484 20.464 10.332 40.448 22.956 57.148 28.372 37.532 74.788 50.148 119.008 56.704-.064 47.88 4.48 111.796 36.356 150.584 18.416 22.404 45.144 34.28 73.584 37.06 32.528 3.184 58.404-7.58 83.132-27.652 18.232 17.788 40.536 26.596 65.752 28.28 30.504 2.04 61.748-5.128 84.792-26.22 42.84-39.204 43.816-108.42 46.488-162.036 37.34-4.336 74.816-16.9 101.536-44.46 31.292-32.276 35.516-69.26 34.712-112.152 61.908 19.572 121.82 32.152 187.104 33.452 108.404 2.16 216.66-32.42 295.192-108.972 102.748-100.164 128.328-225.844 130.22-363.94 12.036 57.52 18.568 116.644 25.556 174.956 21.512 179.44 28.74 358.824 31.604 539.372-45.744 22.26-95.408 37.088-143.924 52.032a4190.27 4190.27 0 0 1-267.356 71.48c-65.204 15.088-130.02 25.092-192.472 50.628-106.984 43.74-249.336 151.568-319.388 243.552-33.4 43.856-57.48 90.864-78.604 141.476-11.108-23.444-20.384-47.308-32.964-70.108-17.072-30.652-37.116-59.556-59.84-86.292-80.364-92.736-225.22-201.244-341.208-242.148-52.98-18.684-109.136-29.688-163.72-42.532-69.76-15.988-139.068-33.9-207.84-53.708-1.516-54.492 7.184-161.62-5.804-209.516-5.576-20.7-16.492-39.572-31.664-54.72-44.404-44.332-103.516-37.62-161-37.172z"/><path fill="#3f9baf" d="M1225.148 1439.22c133.092 69.412 269.344 73.06 410.86 28.504l10.444-3.336c-1.336 14.308-2.58 28.084-.596 42.42-24.1 3.652-47.956 10.44-72.064 14.548-69.14 11.792-146.412 13.144-214.144-6.168-31.764-9.052-122.388-43.96-139.204-74.024l4.704-1.944z"/><path fill="#51b5c7" d="M1705.808 3187.848c10.68-2.38 22.3-2.284 33.216-3.592a458.54 458.54 0 0 0 74.92-14.916c75.612-22.472 130.016-63.976 167.52-133.136 6.74 10.4 12.86 21.284 19.168 31.952 54.884 71.104 129.648 104.54 217.2 116.024 58.068 7.62 117.96 4.024 176.224.144 187.304-11.62 372.492-46.004 551.484-102.388-52.876 188.932-161.156 324.352-331.884 420.544-287.384 161.92-736.14 170.176-1047.348 82.548-207.648-58.468-392.828-159.916-500.94-354.232-26.412-47.468-49.128-99.388-61.764-152.248 59.704 14.784 118.176 33.096 178.244 46.904 159.596 36.696 360.304 64.232 523.96 62.396z"/><path fill="#3f9baf" d="M1705.808 3187.848c10.68-2.38 22.3-2.284 33.216-3.592a458.54 458.54 0 0 0 74.92-14.916c75.612-22.472 130.016-63.976 167.52-133.136 6.74 10.4 12.86 21.284 19.168 31.952-12.416 17.176-23.3 34.488-37.412 50.56-35.164 40.044-87.888 63.836-139.9 72.36-27.74 4.544-57.384 4.62-85.252 1.288-11.06-1.324-20.9-4.524-32.26-4.516z"/><path fill="#686767" d="M490.456 1574.788c37.368-2.076 75.604-.536 113.064-.532l211.76-.016 146.74-.12c31.088-.012 63.624-1.76 94.424 2.432 12 1.636 23.736 7.6 32.676 15.748 15.068 13.736 17.236 28.444 18.228 47.752 2.808 54.552.4 110.492.352 165.188l-.064 310.1.08 198.976c.108 35.556 3.02 74.052-1.184 109.32-1.532 12.84-6.888 25.828-16.008 35.176-9.088 9.312-22.036 14.756-34.628 17.216-21.596 4.224-45.528 2.26-67.476 2.164l-99.284-.304-272.712.04c-43.108.004-92.876 4.184-135.004-1.884-15.396-2.22-27.08-4.888-38.236-16.464-19.308-20.032-16.952-47.128-16.684-72.824 19.548-4.876 39.052-9.684 57.296-18.436 31.964-15.328 56.808-41.288 68.552-74.976 12.956-37.16 7.34-75.788-9.632-110.488 8.9-15.548 16.144-30.02 20.016-47.628 7.484-34.012 2.04-71.864-17.192-101.176-26.852-40.916-73.132-57.776-118.888-67.436l.1-222.624c-.04-38.488-4.104-81.472 1.74-119.448 1.732-11.228 5.024-20.684 12.684-29.268 12.948-14.512 30.76-18.916 49.28-20.488z"/><path fill="#f18c31" d="M748.748 1698.568a171.48 171.48 0 0 1 73.308 9.972c39.308 14.56 71.068 44.388 88.06 82.712 16.32 36.76 17.4 82.24 2.384 119.628-19.596 48.78-57.94 73.504-104.396 93.376l-.364 77.712c-.28 12.888-2.232 26.66-.956 39.48.404 4.044 1.56 8.4 4.196 11.588 10.012 12.112 86.872 6.976 106.632 7.516.568 15.42 3.22 34.644.064 49.684-4.664 22.196-43.756 3.936-59.956 15.416-3.68 5.136-4.16 9.068-4.372 15.176-.44 12.6-1.808 34.004 8.612 43.016 9.296 8.044 25.948.948 36.92-.112 5.12-.496 9.76 1.188 13.396 4.852 9.928 10.004 6.276 31.364 5.752 43.92l-.764 3.564c-10.092 8.892-90.04 4.612-108.908 4.508-3.668 5.38-7.324 11.036-11.756 15.82-7.736 8.34-18.664 14.864-30.344 14.552-15.276-.408-25.2-10.348-34.652-21.116-7.94-38.832-3.728-82.936-3.672-122.516l.244-202.348c-19.308-5.928-37.716-13.38-54.424-24.896-33.824-23.308-57.652-58.784-64.548-99.436-6.92-40.82 1.616-82.864 25.824-116.64 28.308-39.504 66.932-57.436 113.72-65.428z"/><path fill="#686767" d="M761.72 1777.092c41.712-1.568 76.908 30.744 78.9 72.44s-29.964 77.216-71.636 79.632a76.13 76.13 0 0 1-68.296-34.62c-14.884-22.98-16.28-52.184-3.656-76.48a76.13 76.13 0 0 1 64.688-40.972z"/><path d="M2981.696 1805.912l2.752.864c3.676 13.08 4.264 106.06 5.156 128.32l17.024 527.36c-317.276 68.42-640.78 103.84-965.348 105.696l-25.38.064c-.136-96.932-7.96-164.736 29.548-257.488 30.56-75.568 77.428-131.524 135.444-187.06 54.708-52.38 119.312-105.42 187.74-138.548 71.484-34.608 151.212-48.292 227.896-66.404 129.596-30.616 262.288-60.392 385.168-112.804zm-1805.648 65.268c65.384 18.492 131.332 33.344 197.536 48.508 73.136 16.748 149.34 31.984 216.62 66.42 50.848 26.024 97.82 62.996 141.856 99.088 85.136 69.772 157.712 146.428 195.888 252.14 10.176 28.184 18.268 56.904 21.04 86.84 2.88 31.124.444 62.56.824 93.768.144 11.82 2.14 23.84 1.244 35.648-.464 6.096-1.212 9.344-5.04 13.948l-9.516.308c-261.672.112-523.096-32.916-780.784-75.708 7.888-12.784 15.604-27.976 17.772-42.94 3.832-26.444 2.684-54.108 2.64-80.76l-.124-109.776.044-387.484z" fill="#f18c31"/><path fill="#51b5c7" d="M1928.904 315c205.388-6.432 425.88 23.854 612.028 114.7 121.644 59.364 258.268 169.496 303.392 300.16l-14.184-14.892c-41.896-42.548-86.784-75.876-143.32-96.588-91.912-33.668-197.432-33.84-294.348-39.324a7610.55 7610.55 0 0 0-382.26-11.804 8874.16 8874.16 0 0 0-236.208 2.772c-125.908 2.488-252.692 6.8-377.96 20.428-128.808 14.012-208.744 45.176-292.268 148.928 15.032-59.684 59.444-116.22 101.112-160.756C1386.952 384.038 1672.704 323.487 1928.904 315z"/><path d="M916.784 2741.036c337.56 87.708 685.12 131.012 1033.88 128.816-1.764 69.24-13.708 137.048-63.268 188.128-62.5 59.348-148.708 65.924-230.504 64.532-58.476-.992-117.072-7.056-175.16-13.48-148.248-16.396-299.232-40.58-440.468-89.644-31.784-11.044-74.272-24.216-97.6-49.464-39.668-42.936-28.312-171.06-26.88-228.888zm2100.624 13.524l2.288 3.308c1.744 42.272 2.828 189.48-21.78 219.948-18.628 23.06-58.696 35.436-85.928 45.052-155.088 54.768-326.18 81.52-489.576 94.532-111.964 8.916-247.644 23.032-339.1-54.904-52.944-52.924-65.436-119.952-67.268-192.72 336.156.936 675.352-31.652 1001.364-115.216z" fill="#f18c31"/><path d="M1103.512 2536.344c32.188 3.2 65.084 11.428 97.136 16.732 60.364 9.792 120.884 18.58 181.54 26.352a5157.52 5157.52 0 0 0 567.9 40.172l.036 197.728-177.628-4.58c-294.28-12.76-567.552-48.828-852.288-128.444 2.484-45 3.264-89.968 8.068-134.832 59.88.28 117.276 4.312 175.236-13.128zm1899.436-19.876l3.904-.1c5.792 8.812 9.672 156.74 11.336 182.168-318.032 90.996-656.396 114.468-985.568 118.764-5.552.224-9.3.264-14.692-1.448-5.612-11.792-1.78-169.968-1.72-196.408a4821.42 4821.42 0 0 0 986.74-102.976z" fill="#cbc8c5"/><path fill="#51b5c7" d="M3056.34 1935.48l1.696 1.304c27.596 21.448 53.004 46.148 77.448 71.068 122.484 124.868 207.296 284.392 229.484 459.244-47.576-7.928-98.148-2.24-138.492 26.416-9.384 6.664-17.428 14.58-24.588 23.6-22.604-57.784-51.68-114.252-89.812-163.372-14.604-18.816-32.6-35.056-46.64-54.204l-.992-1.384c-10.556-120.592-1.992-242.032-8.104-362.672z"/><path d="M1813.172 1359.668c4.16 3.956 5.68 42.06 21.856 61.764 24.888 30.32 79.688 44.064 117.024 48.08 53.892 5.8 125.272-2.596 168.444-38.536 24.556-20.444 26.824-42.72 29.388-72.58 28.732 18.812 61.564 40.828 82.936 68.016 15.64 19.892 26.936 48.348 23.128 73.868-3.268 21.932-17.156 36.248-34.448 48.512-79.064 40.656-167.144-12.384-250.46-8.772-63.288 2.748-130.476 33.504-193.324 22.508-24.952-4.368-49.48-16.504-64.076-37.776-11.064-16.132-13-34.736-8.72-53.54 12.224-53.684 65.092-84.264 108.252-111.544zM409.104 2034.52c11.42-1.512 22.956.012 33.88 3.472 21.724 6.884 43.588 21.472 53.696 42.504 26.384 54.912-25.236 62.92-32.532 87.54-5.716 19.292 18.356 39 26.356 55.62 6.504 13.512 8.32 30.276 2.564 44.364-9.16 22.428-34.704 35.58-55.956 44.228-2.976 1.028-5.888 2.016-8.952 2.76-21.008 5.104-41.838 5.324-60.666-6.716-28.986-18.544-43.838-57.816-50.144-90.22-9.071-46.616-5.319-109.024 22.708-149.148 17.043-24.396 41.578-29.324 69.046-34.404zm2792.784 482.592c7.16-9.02 15.204-16.936 24.588-23.6 40.344-28.656 90.916-34.344 138.492-26.416 10.048 74.276 20.536 186.424-25.648 249.408-11.68 15.928-27.432 27.544-47.316 30.284-26.656 3.676-56-7.964-76.648-24.656-14.64-11.832-24.436-26.168-26.436-45.336-5.712-54.66 56.572-50.876 12.968-159.684zm-532.416 1028.876c6.292.148 12.476 1.14 18.664 2.26 57.12 10.34 146.128 51.136 178.9 101.02 7.396 11.264 11.852 24.716 8.344 38.124-4.312 16.488-17.26 25.86-31.052 34.132-20.16-42.028-45.672-75.588-90.02-93.852-5.724 5.528-13.516 13.288-14.728 21.508-2.128 14.448 30.152 36.768 40.068 48.408 8.808 11.412 14.596 22.8 19.896 36.096a267.95 267.95 0 0 1-13.568 1.92c-110.26 13.268-210.224-41.796-293.744-107.504 62.748-18.644 120.112-50.88 177.24-82.112zm-1380.872.564c12.18-1.064 82.068 39.34 99.296 47.38 28.148 13.144 56.416 24.316 85.916 34.032a537.55 537.55 0 0 1-23.992 19.448c-79.38 61.56-179.644 99.692-280.88 86.876 2.796-9.276 6.936-17.624 11.204-26.276 11.412-17.712 45.8-43.044 45.08-58.004-.42-8.76-8.68-16.196-14.156-22.256-43.764 18.64-67.512 50.816-87.02 92.804-2.536-1.336-5.04-2.728-7.508-4.18-11.524-6.86-22.292-17.136-25.332-30.692-3.044-13.58 2.76-26.816 10.428-37.76 38.872-55.464 122.704-89.58 186.964-101.372z" fill="#f9d1a9"/><path d="M1019.404 602.588c23.08-2.4 43.748 1.224 65.796 7.816-17.664 28.308-34.46 56.804-49.712 86.484-16.392 3.424-37.648 5.728-49.68 18.572-5.056 5.396-7.5 12.348-6.76 19.72 1.824 18.216 18.288 33.412 31.608 44.48-10.048 22.036-17.684 44.632-24.4 67.868-1.072 3.644-1.944 5.436-4.58 8.184-9.824.544-24.86-9.828-32.848-15.488-27.34-19.648-45.608-49.492-50.664-82.78-5.8-34.18 2.484-69.256 22.96-97.232 23.744-32.532 58.916-51.532 98.28-57.624zm1869.884-.192c18.024-1.16 34.612-1.184 52.28 3.028 36.696 8.744 70.78 31.016 90.668 63.444a132.74 132.74 0 0 1 15.34 103.192c-8.524 33.724-29.284 58.672-58.74 76.424-7.928 4.22-16.948 7.068-25.332 10.316-6.524-24.336-14.404-48.312-21.96-72.344 14.424-12.624 33.032-30.572 34.716-50.916.56-6.752-1.308-13.196-5.816-18.32-12.288-13.956-35.892-14.328-53.152-15.62-6.252-11.312-50.92-82.804-51.752-88.464-.156-1.084.468-2.136.704-3.208 6.992-5.004 14.784-5.9 23.044-7.532z" fill="#51b5c7"/><path d="M2003.784 1601.156c41.028 2.664 81.832 14.056 122.732 19.364-.464 39.664-1.74 80.368-22.044 115.512-12.988 14.4-27.48 20.496-46.808 21.656-14.14.848-28.156-1.096-38.88-11.132-7.052-6.604-11.324-15.744-13.336-25.088-5.996-27.848-1.58-88.56-1.664-120.312zm-58.616 1.54l.808-.184c4.628-.6 9.66-2.092 13.428.744 2.9 29 6.12 107.688-7.864 131.72-6.208 10.668-16.032 19.1-28.164 22.06-18.26 4.456-38.656-2.984-53.948-12.684-29.648-28.036-29.6-86.932-31.764-125.2 36.096-3.396 71.648-11.104 107.504-16.456z" fill="#fbf7ef"/><path fill="#3f9baf" d="M1981.148 1145.696c11.12 8.008 20.456 16.524 29.552 26.736 19.332 23.356 35.52 49.652 51.728 75.24-34.612-7.664-67.684-10.2-103.072-9.176-20.68 1.748-41.188 5.124-61.332 10.108 21.952-39.672 46-75.864 83.124-102.908z"/><path fill="#51b5c7" d="M1959.356 1238.496c13.968-24.36 29.78-47.728 51.344-66.064 19.332 23.356 35.52 49.652 51.728 75.24-34.612-7.664-67.684-10.2-103.072-9.176z"/></svg>